<svg xmlns="http://www.w3.org/2000/svg" version="1.1" viewBox="0 0 1000 176">
  <path fill="#08050d" d="M217.08 49.88c-18.16 0-33.1 5.98-45.29 18.16-12.18 11.95-18.16 26.9-18.16 44.6s6.21 32.87 18.62 44.83c12.41 11.95 28.05 17.93 46.67 17.93 25.52 0 46.44-12.41 57.24-32.41l-33.33-7.59c-5.98 7.13-13.79 10.57-23.68 10.57-14.02 0-25.29-8.28-29.19-20.92h88.96c.92-3.91 1.38-8.05 1.38-12.41 0-17.7-5.98-32.64-18.16-44.6-12.18-12.18-27.13-18.16-45.06-18.16m-26.9 49.66c3.91-12.18 14.71-20.23 26.9-20.23 12.87 0 23.68 8.05 28.05 20.23h-54.94Zm165.23-49.66c-13.79 0-24.6 5.06-32.64 15.17V52.87h-34.48v119.54h34.48v-67.59c0-13.1 9.43-22.99 22.07-22.99s21.84 9.89 21.84 22.99v67.59h34.48V95.63c0-13.1-4.37-23.91-13.33-32.64-8.74-8.74-19.54-13.1-32.41-13.1Zm99.78-29.51-34.48 11.14v21.36h-16.32v29.88h16.32v51.49c0 10.8 3.91 20 11.95 27.36 8.05 7.13 18.16 10.8 29.89 10.8h19.77v-32.18H468.3c-7.59 0-13.1-5.29-13.1-12.64V82.75h27.13V52.87H455.2v-32.5Zm92.18 29.51c-18.16 0-33.1 5.98-45.29 18.16-12.18 11.95-18.16 26.9-18.16 44.6s6.21 32.87 18.62 44.83c12.41 11.95 28.04 17.93 46.67 17.93 25.52 0 46.44-12.41 57.24-32.41l-33.33-7.59c-5.98 7.13-13.79 10.57-23.68 10.57-14.02 0-25.29-8.28-29.19-20.92h88.96c.92-3.91 1.38-8.05 1.38-12.41 0-17.7-5.98-32.64-18.16-44.6-12.18-12.18-27.13-18.16-45.06-18.16m-26.9 49.66c3.91-12.18 14.71-20.23 26.9-20.23 12.87 0 23.68 8.05 28.04 20.23zm205.76-46.67h-40.69l-33.79 46.9V0h-34.48v172.41h34.48v-51.26l37.47 51.26h41.38l-45.75-61.84zm83.66 67.59c0 13.1-9.42 22.99-22.07 22.99s-21.84-9.89-21.84-22.99V52.87H731.5v76.78c0 13.1 4.37 23.91 13.1 32.64 8.96 8.74 19.77 13.1 32.64 13.1 13.79 0 24.6-5.06 32.64-15.17v12.18h34.48V52.87h-34.48v67.59ZM1000 82.76V52.88h-27.13V20.37l-34.48 11.14v21.36h-36.32v-32.5l-34.48 11.14v21.36h-16.32v29.88h16.32v51.49c0 10.8 3.91 20 11.95 27.36 8.04 7.13 18.16 10.8 29.88 10.8h19.77v-32.18h-14.02c-7.59 0-13.1-5.29-13.1-12.64V82.75h36.32v51.49c0 10.8 3.91 20 11.95 27.36 8.05 7.13 18.16 10.8 29.89 10.8H1000v-32.18h-14.02c-7.59 0-13.1-5.29-13.1-12.64V82.75h27.13ZM142.06 45.58C130.26 17.09 103.57-.47 72.61 0 32.18.63 0 34.19 0 74.61v97.8h33.46V74.3c0-22.22 17.77-40.65 39.99-40.84 20.12-.17 32.67 12.8 37.7 24.92 4.99 12.05 5.31 29.94-8.75 44l-11.87 11.87V82.34H56.05v51.97c0 21.04 17.05 38.09 38.09 38.09h51.97v-32.18h-34.22l14.17-14.17c21.52-21.52 27.65-52.35 16.01-80.47Z"/>
</svg>
